<?xml version="1.0" encoding="UTF-8" standalone="no"?>
<svg
   width="16"
   height="16"
   version="1.1"
   id="svg6"
   sodipodi:docname="brightness-off.svg"
   inkscape:version="1.2 (dc2aedaf03, 2022-05-15)"
   xmlns:inkscape="http://www.inkscape.org/namespaces/inkscape"
   xmlns:sodipodi="http://sodipodi.sourceforge.net/DTD/sodipodi-0.dtd"
   xmlns="http://www.w3.org/2000/svg"
   xmlns:svg="http://www.w3.org/2000/svg">
  <defs
     id="defs10" />
  <sodipodi:namedview
     id="namedview8"
     pagecolor="#ffffff"
     bordercolor="#666666"
     borderopacity="1.0"
     inkscape:showpageshadow="2"
     inkscape:pageopacity="0.0"
     inkscape:pagecheckerboard="0"
     inkscape:deskcolor="#d1d1d1"
     showgrid="false"
     inkscape:zoom="14.75"
     inkscape:cx="8"
     inkscape:cy="8"
     inkscape:window-width="1918"
     inkscape:window-height="1028"
     inkscape:window-x="0"
     inkscape:window-y="0"
     inkscape:window-maximized="1"
     inkscape:current-layer="svg6" />
  <g
     transform="translate(-612.5,190.5)"
     opacity="0.35"
     id="g4"
     style="fill:#ededed;fill-opacity:0.69999999;opacity:1">
    <path
       d="m 620.25,-190 a 0.25,0.25 0 0 0 -0.25,0.25 v 1.5 c 0,0.139 0.112,0.25 0.25,0.25 h 0.5 a 0.25,0.25 0 0 0 0.25,-0.25 v -1.5 a 0.25,0.25 0 0 0 -0.25,-0.25 z m -4.699,1.947 a 0.25,0.25 0 0 0 -0.178,0.073 l -0.353,0.353 a 0.25,0.25 0 0 0 0,0.354 l 1.06,1.06 a 0.25,0.25 0 0 0 0.354,0 l 0.353,-0.353 a 0.25,0.25 0 0 0 0,-0.354 l -1.06,-1.06 a 0.246,0.246 0 0 0 -0.176,-0.073 z m 9.898,0 a 0.246,0.246 0 0 0 -0.175,0.073 l -1.06,1.06 a 0.25,0.25 0 0 0 0,0.354 l 0.353,0.353 a 0.25,0.25 0 0 0 0.353,0 l 1.06,-1.06 a 0.25,0.25 0 0 0 0,-0.354 l -0.353,-0.353 a 0.25,0.25 0 0 0 -0.178,-0.073 z M 620.5,-186 a 3.5,3.5 0 0 0 -3.5,3.5 3.5,3.5 0 0 0 3.5,3.5 3.5,3.5 0 0 0 3.5,-3.5 3.5,3.5 0 0 0 -3.5,-3.5 z m 0,1 a 2.5,2.5 0 0 1 2.5,2.5 2.5,2.5 0 0 1 -2.5,2.5 2.5,2.5 0 0 1 -2.5,-2.5 2.5,2.5 0 0 1 2.5,-2.5 z m -7.25,2 a 0.25,0.25 0 0 0 -0.25,0.25 v 0.5 c 0,0.139 0.112,0.25 0.25,0.25 h 1.5 a 0.25,0.25 0 0 0 0.25,-0.25 v -0.5 a 0.25,0.25 0 0 0 -0.25,-0.25 z m 13,0 a 0.25,0.25 0 0 0 -0.25,0.25 v 0.5 c 0,0.139 0.112,0.25 0.25,0.25 h 1.5 a 0.25,0.25 0 0 0 0.25,-0.25 v -0.5 a 0.25,0.25 0 0 0 -0.25,-0.25 z m -9.992,4.139 a 0.252,0.252 0 0 0 -0.178,0.074 l -1.06,1.06 a 0.25,0.25 0 0 0 0,0.354 l 0.353,0.353 a 0.25,0.25 0 0 0 0.354,0 l 1.06,-1.06 a 0.25,0.25 0 0 0 0,-0.354 l -0.353,-0.353 a 0.248,0.248 0 0 0 -0.176,-0.074 z m 8.484,0 a 0.248,0.248 0 0 0 -0.175,0.074 l -0.354,0.353 a 0.25,0.25 0 0 0 0,0.354 l 1.06,1.06 a 0.25,0.25 0 0 0 0.354,0 l 0.354,-0.353 a 0.25,0.25 0 0 0 0,-0.354 l -1.06,-1.06 a 0.252,0.252 0 0 0 -0.179,-0.074 z M 620.25,-177 a 0.25,0.25 0 0 0 -0.25,0.25 v 1.5 c 0,0.139 0.112,0.25 0.25,0.25 h 0.5 a 0.25,0.25 0 0 0 0.25,-0.25 v -1.5 a 0.25,0.25 0 0 0 -0.25,-0.25 z"
       fill="#dedede"
       overflow="visible"
       style="isolation:auto;mix-blend-mode:normal;fill:#ededed;fill-opacity:0.69999999"
       id="path2" />
  </g>
</svg>
